<svg
	
    width="10"
    height="13"
    viewBox="0 0 7 9"
    fill="none"
    xmlns="http://www.w3.org/2000/svg"
>
<path
    d="M3.46542 2.87353C3.7502 2.87353 3.98106 3.1423 3.98106 3.47385C3.98106 3.80539 3.7502 4.07416 3.46542 4.07416C3.18064 4.07416 2.94978 3.80539 2.94978 3.47385C2.94978 3.1423 3.18064 2.87353 3.46542 2.87353Z"
    fill="#0C9CDA"
/>
<path
    d="M3.7062 6.60602H3.24774C3.09601 6.60602 2.97287 6.46137 2.97287 6.28602V4.57976C2.97287 4.40441 3.09712 4.25976 3.24774 4.25976H3.7062C3.85682 4.25976 3.98107 4.40441 3.98107 4.57976V6.28602C3.98107 6.46137 3.85684 6.60602 3.7062 6.60602Z"
    fill="#0C9CDA"
/>
<path
    d="M3.45332 8.73975C1.55456 8.73975 0.0175171 6.95031 0.0175171 4.73975C0.0175171 2.5292 1.55456 0.739763 3.45332 0.739763C5.35209 0.739763 6.88913 2.5292 6.88913 4.73975C6.88913 6.95031 5.3521 8.73975 3.45332 8.73975ZM3.45663 1.88407C2.1032 1.88407 1.00483 3.16152 1.00483 4.73848C1.00483 6.31544 2.10209 7.59288 3.45663 7.59288C4.81117 7.59288 5.90843 6.31544 5.90843 4.73848C5.90843 3.16151 4.81007 1.88407 3.45663 1.88407Z"
    fill="#0C9CDA"
/>
</svg>