<svg width="100" height="23" viewBox="0 0 100 23" fill="none" xmlns="http://www.w3.org/2000/svg">
<path d="M50.8682 8.9176L50.1838 9.42665C51.1797 11.318 51.4445 13.511 50.9277 15.5858C50.4108 17.6607 49.1486 19.4717 47.3824 20.6722C45.6163 21.8727 43.4704 22.3785 41.3555 22.0926C39.2405 21.8068 37.305 20.7495 35.9193 19.123C34.5337 17.4965 33.7953 15.4151 33.8455 13.2772C33.8957 11.1393 34.7309 9.09502 36.1912 7.53559C37.6516 5.97617 39.6345 5.01115 41.7606 4.82523C43.8866 4.63931 46.0064 5.24555 47.7143 6.52791L48.2576 5.881C46.3891 4.47644 44.0684 3.81377 41.7417 4.02047C39.4151 4.22718 37.2468 5.28865 35.6541 7.00071C34.0614 8.71276 33.1567 10.9545 33.1141 13.2947C33.0714 15.6348 33.8938 17.9082 35.423 19.6774C36.9522 21.4466 39.0803 22.5867 41.3979 22.8785C43.7154 23.1702 46.0588 22.5929 47.9772 21.2577C49.8956 19.9225 51.2536 17.9236 51.7899 15.6455C52.3262 13.3675 52.0029 10.9712 50.8823 8.9176H50.8682ZM50.2579 7.95254C49.9221 7.48084 49.5442 7.04068 49.129 6.6375L48.5575 7.25967C48.9478 7.63318 49.3021 8.0427 49.6158 8.48279L50.2579 7.95254Z" fill="#FFB800"/>
<path d="M48.053 18.6108C47.9154 18.7487 47.7743 18.8795 47.6261 19.0068C47.4779 19.134 47.4109 19.1906 47.298 19.2754C47.1315 19.4023 46.9584 19.5203 46.7794 19.6289C46.6524 19.7138 46.5219 19.7915 46.3843 19.8693C46.1762 19.986 45.961 20.0956 45.7387 20.1945C45.5764 20.2688 45.4106 20.3324 45.2448 20.3925C44.944 20.5018 44.6364 20.5915 44.3241 20.6612C43.7775 20.7837 43.2191 20.8454 42.6589 20.845C42.3535 20.8458 42.0483 20.827 41.7452 20.7884C41.0914 20.7117 40.4507 20.5477 39.8402 20.3006C38.6845 19.8334 37.6592 19.0922 36.8522 18.1407C36.6969 17.9569 36.5523 17.7695 36.4147 17.5751C36.1758 17.2282 35.9646 16.863 35.7832 16.4827C35.6603 16.2244 35.5531 15.9588 35.4622 15.6874C35.3625 15.4135 35.28 15.1337 35.2153 14.8496C35.1617 14.6164 35.1216 14.3803 35.0953 14.1426C35.0587 13.8411 35.0399 13.5377 35.0389 13.234C35.0389 13.1457 35.0389 13.0538 35.0389 12.9654C35.04 12.7822 35.0518 12.5993 35.0742 12.4175C35.0742 12.2937 35.1024 12.17 35.12 12.0639C35.1377 11.9579 35.1835 11.7104 35.2223 11.5478C35.2611 11.3852 35.2717 11.3287 35.3035 11.2191C35.3493 11.0494 35.4022 10.8832 35.4622 10.7171C35.4946 10.615 35.5323 10.5147 35.5751 10.4166C35.6386 10.2469 35.7127 10.0843 35.7868 9.92525C35.6174 9.88283 35.434 9.84394 35.2647 9.80859C35.1854 9.9697 35.1148 10.1349 35.053 10.3035L34.9472 10.5863C34.8907 10.7524 34.8413 10.9186 34.7919 11.0883C34.7637 11.1908 34.7355 11.2933 34.7143 11.3958C34.6755 11.569 34.6402 11.7493 34.612 11.9119C34.5908 12.0251 34.5767 12.1382 34.5626 12.2654C34.5415 12.4422 34.5273 12.619 34.5168 12.7992C34.5062 12.9795 34.5168 13.1068 34.5168 13.2623C34.5168 13.4179 34.5168 13.6158 34.5168 13.7749C34.5168 14.0118 34.5556 14.2486 34.5908 14.4819C34.7555 15.5742 35.1396 16.6216 35.7197 17.5609C35.8432 17.7589 35.9773 17.9498 36.1149 18.1371C36.7635 19.0103 37.5799 19.7447 38.5159 20.2971C39.4519 20.8496 40.4887 21.2089 41.5653 21.354C41.9161 21.4018 42.2697 21.4254 42.6237 21.4247C42.8212 21.4247 43.0082 21.4247 43.1987 21.4035C43.8784 21.3574 44.5494 21.2244 45.1954 21.0076C45.4424 20.9228 45.6823 20.8308 45.9186 20.7283C46.0739 20.6576 46.222 20.5834 46.3737 20.5092C46.5254 20.4349 46.7547 20.2971 46.9382 20.1804C47.0687 20.1026 47.1957 20.0143 47.3192 19.9294C47.4427 19.8446 47.6402 19.689 47.7919 19.5759C47.9436 19.4628 48.0106 19.3921 48.1165 19.2931C48.2223 19.1941 48.3916 19.0315 48.5186 18.8972C48.3881 18.7593 48.2188 18.6815 48.053 18.6108Z" fill="#FFB800"/>
<path d="M48.5574 18.8443C48.4304 18.9786 48.2964 19.1129 48.1553 19.2402C47.9753 19.1553 47.8025 19.074 47.6261 19.0069C47.1114 18.7986 46.5834 18.625 46.0456 18.4872L45.4671 18.3423L45.1143 18.261H45.0437L44.4687 18.1266C43.6382 17.9705 42.8468 17.6509 42.1403 17.1863C41.4638 16.6924 40.9582 15.999 40.6939 15.2032L40.6093 14.9911C40.5634 14.8815 40.5211 14.7719 40.4752 14.6588C40.4752 14.6376 40.4752 14.6128 40.447 14.5916C40.38 14.429 40.3094 14.2664 40.2283 14.0932C39.8607 13.3226 39.3856 12.6084 38.8171 11.9721C38.1574 11.2192 36.9686 10.7243 35.5998 10.399C35.4269 10.3566 35.247 10.3213 35.0777 10.2859C35.1394 10.1173 35.2101 9.95212 35.2893 9.79102C35.4657 9.82637 35.6421 9.86525 35.8115 9.90767C37.2226 10.2612 38.4891 10.802 39.2123 11.6222C39.8579 12.3384 40.3908 13.1489 40.7927 14.026C40.8739 14.2063 40.9479 14.3795 41.0114 14.5421L41.0749 14.6977C41.0749 14.7259 41.0996 14.7542 41.1102 14.786C41.1808 14.9628 41.2478 15.1395 41.3184 15.288C41.5482 15.8785 41.9471 16.3876 42.4649 16.7515C42.9626 17.0867 43.5156 17.3308 44.0983 17.4727C44.3311 17.5398 44.571 17.5964 44.8038 17.6565L45.1249 17.7307L45.2307 17.7555L45.8551 17.9039C46.5946 18.0781 47.318 18.3147 48.0177 18.6109C48.2188 18.6816 48.3881 18.7594 48.5574 18.8443Z" fill="#FFB800"/>
<path d="M47.8307 19.523C47.679 19.6467 47.5202 19.7704 47.358 19.8765C47.1639 19.7846 46.9699 19.7033 46.7794 19.629C46.3237 19.4532 45.8585 19.3033 45.3859 19.1801C45.1919 19.1306 44.9979 19.0811 44.8109 19.0387L44.3523 18.9291C43.2304 18.671 42.2673 18.4483 41.4454 17.8686C41.1248 17.6402 40.8426 17.3622 40.6093 17.0449C40.5649 16.9891 40.5248 16.93 40.4893 16.8682C40.257 16.4908 40.0643 16.0904 39.9143 15.6733C39.8543 15.5284 39.7979 15.3799 39.7344 15.2279C39.6709 15.0759 39.6144 14.9486 39.5439 14.8037C39.5336 14.776 39.5218 14.7488 39.5086 14.7224C39.4451 14.5951 39.3781 14.4643 39.304 14.3265C38.9648 13.727 38.5614 13.1663 38.101 12.6544C37.5083 11.9827 36.4923 11.5126 35.3034 11.1909C35.1376 11.1449 34.9507 11.1025 34.7919 11.0601C34.8413 10.8904 34.8907 10.7066 34.9471 10.5581L35.4622 10.6889C36.7357 11.0424 37.8364 11.5585 38.4961 12.308C39.0012 12.8736 39.4403 13.495 39.8049 14.1603C39.8966 14.33 39.9743 14.4891 40.0448 14.6446C40.1295 14.8284 40.2036 14.9981 40.2706 15.1678C40.3129 15.2668 40.3517 15.3658 40.3905 15.4612C40.7116 16.2672 40.9409 16.8469 41.7417 17.4267C42.4755 17.9605 43.3927 18.1726 44.4546 18.42L44.6063 18.4554L45.2236 18.6003L45.5306 18.6781L46.0915 18.8372C46.4963 18.9598 46.8943 19.1037 47.2839 19.2684C47.4744 19.3497 47.6508 19.4452 47.8307 19.523Z" fill="#FFB800"/>
<path d="M46.977 20.152C46.7935 20.2686 46.603 20.3747 46.4125 20.4807C46.1832 20.3818 45.961 20.2934 45.7387 20.2191C45.057 19.9866 44.362 19.7954 43.6573 19.6465C42.539 19.3884 41.5759 19.1657 40.7539 18.5683C40.6307 18.4775 40.5129 18.3795 40.4011 18.2749C40.3228 18.2063 40.2486 18.1331 40.1789 18.0557C40.0872 17.9592 40.0023 17.8565 39.9249 17.7482C39.8438 17.6386 39.7732 17.529 39.7062 17.4194C39.6489 17.3222 39.597 17.2219 39.5509 17.1189C39.4416 16.8997 39.3499 16.6735 39.2546 16.4402L39.2299 16.373C39.1135 16.0832 38.9935 15.7791 38.8348 15.4539C38.7642 15.3054 38.6831 15.1464 38.5914 14.9838C38.2618 14.4033 37.8702 13.8605 37.4237 13.3647C36.7903 12.723 35.9994 12.2596 35.1306 12.0214L34.6226 11.8694C34.6508 11.6962 34.6861 11.5159 34.7249 11.3533C34.8978 11.3992 35.0777 11.4523 35.2329 11.5053C36.2084 11.7612 37.0984 12.2724 37.8117 12.9865C38.306 13.5385 38.7367 14.1444 39.0959 14.7929C39.1876 14.959 39.2687 15.1252 39.3428 15.2807C39.491 15.5918 39.6074 15.8817 39.6956 16.1468C39.7697 16.3306 39.8402 16.5003 39.9143 16.67C40.01 16.9036 40.1281 17.1274 40.2671 17.3381C40.3165 17.4053 40.3694 17.476 40.4258 17.5431C40.4823 17.6103 40.5211 17.6527 40.5705 17.7093C40.6954 17.8358 40.8286 17.9539 40.9691 18.0628L41.0326 18.1087C41.7699 18.6425 42.6872 18.8546 43.749 19.1021C44.1018 19.1834 44.4546 19.2682 44.8532 19.3707C45.0367 19.4167 45.206 19.4697 45.4106 19.5298C45.7176 19.6253 46.0351 19.7313 46.3561 19.8621C46.5678 19.9576 46.7794 20.0424 46.977 20.152Z" fill="#FFB800"/>
<path d="M45.9574 20.6859C45.7211 20.7884 45.4812 20.8803 45.2342 20.9652C44.9238 20.852 44.6204 20.7531 44.3241 20.6718C43.8513 20.5339 43.3962 20.4278 42.9658 20.3182C41.8475 20.0602 40.8844 19.8339 40.0625 19.2365C39.6817 18.9716 39.3569 18.634 39.1064 18.2432C38.9952 18.0731 38.8973 17.8947 38.8136 17.7094C38.7148 17.5008 38.6302 17.2923 38.5384 17.0695C38.5394 17.0601 38.5394 17.0507 38.5384 17.0413C38.4855 16.9034 38.4256 16.7585 38.3621 16.6065C38.2633 16.3661 38.1504 16.1151 38.0093 15.8464C37.6583 15.1933 37.2307 14.5845 36.7357 14.0329C36.2672 13.5461 35.6941 13.1725 35.06 12.9406C34.8942 12.8699 34.7072 12.8098 34.5379 12.7462C34.5379 12.5694 34.5626 12.3927 34.5838 12.2124C34.7566 12.269 34.9365 12.3291 35.0953 12.3927C35.866 12.6557 36.5636 13.0978 37.1308 13.683C37.8069 14.4297 38.3585 15.2808 38.7642 16.2035C38.863 16.4297 38.9477 16.6453 39.0288 16.8468L39.0535 16.9034C39.1029 17.0307 39.1488 17.1473 39.2017 17.2569C39.2642 17.4131 39.336 17.5654 39.4169 17.7129L39.5121 17.8826C39.5906 18.0057 39.6766 18.1237 39.7697 18.2361C39.9486 18.4485 40.1537 18.6373 40.38 18.7982C41.1137 19.3284 42.031 19.5441 43.0964 19.788C43.8265 19.944 44.5473 20.1411 45.2554 20.3783C45.4777 20.5056 45.714 20.5798 45.9574 20.6859Z" fill="#FFB800"/>
<path d="M39.0429 16.9141C38.8101 16.8222 38.5808 16.7196 38.3374 16.6171C37.2501 16.1059 36.2019 15.5151 35.2012 14.8496C34.993 14.7117 34.7884 14.5739 34.5908 14.436C34.5556 14.2027 34.5309 13.9659 34.5168 13.729L35.0953 14.1426C36.0243 14.7819 36.9942 15.3594 37.9987 15.8712C38.2457 15.995 38.4961 16.1187 38.7537 16.2247C38.8524 16.451 38.9371 16.6666 39.0182 16.8681L39.0429 16.9141Z" fill="#FFB800"/>
<path d="M39.5121 17.9004C39.2793 17.8438 39.05 17.7837 38.8277 17.7201C38.5808 17.6494 38.3444 17.5751 38.1222 17.4938H38.0869C37.3022 17.2237 36.5391 16.8939 35.8044 16.5076C35.5433 16.3697 35.2964 16.2318 35.0565 16.0904C34.9598 15.8309 34.8762 15.5666 34.806 15.2986C35.0248 15.44 35.247 15.5779 35.4834 15.7122C36.4586 16.2825 37.4924 16.7459 38.5667 17.0944C38.7819 17.1651 38.9971 17.2287 39.2193 17.2888C39.2818 17.445 39.3537 17.5973 39.4345 17.7448L39.5121 17.9004Z" fill="#FFB800"/>
<path d="M39.7591 18.2609C39.5368 18.2609 39.3181 18.2609 39.1064 18.2609H38.5243L37.8717 18.2362C37.5189 18.2185 37.1661 18.1973 36.8486 18.1726C36.6017 18.1726 36.3618 18.1372 36.1431 18.116C36.0055 17.9286 35.8714 17.7378 35.748 17.5398L36.4218 17.607C36.7957 17.6388 37.1908 17.6671 37.6106 17.6918L38.2033 17.7201C38.4044 17.7201 38.609 17.7201 38.8242 17.7413C39.0147 17.7413 39.2123 17.7413 39.4133 17.7413L39.5086 17.911C39.5849 18.0326 39.6686 18.1495 39.7591 18.2609Z" fill="#FFB800"/>
<path d="M45.8904 17.9039L45.266 17.7554C44.897 16.8615 44.3157 16.0715 43.5726 15.4541C42.8574 14.8383 41.94 14.5097 40.9973 14.5314C40.9338 14.3688 40.8597 14.1779 40.7786 14.0153C41.3431 13.9732 41.9103 14.0431 42.4478 14.2208C42.9853 14.3985 43.4826 14.6806 43.9113 15.0511C44.8209 15.8009 45.5059 16.7882 45.8904 17.9039Z" fill="#FFB800"/>
<path d="M44.8392 17.6564C44.5887 17.5963 44.3488 17.5398 44.1336 17.4726C43.7993 16.9523 43.3891 16.4852 42.9165 16.0869C42.4585 15.6933 41.9128 15.4157 41.3255 15.2774C41.2549 15.1183 41.1879 14.9521 41.1173 14.7754C41.1173 14.7436 41.0926 14.7153 41.082 14.687C41.8865 14.8071 42.6402 15.1541 43.2552 15.6874C43.9041 16.2361 44.4419 16.9045 44.8392 17.6564Z" fill="#FFB800"/>
<path d="M43.234 21.361C43.0435 21.361 42.8565 21.3822 42.6589 21.3822C42.305 21.3829 41.9514 21.3593 41.6006 21.3115C40.9809 21.0376 40.39 20.7025 39.8367 20.3111C39.0472 19.7524 38.3788 19.0393 37.8717 18.2148L38.5243 18.2396C39.3511 19.3623 40.46 20.2454 41.7382 20.799C42.2231 21.021 42.7229 21.2088 43.234 21.361Z" fill="#FFB800"/>
<path d="M42.2462 13.7254L41.8687 13.3719L52.8896 0.225087C52.9421 0.160179 53.0074 0.106877 53.0815 0.0685457C53.1556 0.0302141 53.2368 0.00768496 53.32 0.00237994C53.4032 -0.00496204 53.4872 0.00472551 53.5666 0.030855C53.646 0.0569845 53.7194 0.0990114 53.7821 0.154387C53.8445 0.209823 53.8954 0.277102 53.9317 0.352339C53.968 0.427576 53.9891 0.509279 53.9938 0.592731C53.9996 0.678285 53.9878 0.764122 53.9593 0.844972C53.9308 0.925823 53.8861 0.99998 53.828 1.06289L42.2462 13.7254Z" fill="#FFB800"/>
<path d="M43.2834 14.1778L42.9764 13.7889L56.2798 2.93637C56.3442 2.88322 56.4186 2.84362 56.4986 2.81993C56.5787 2.79624 56.6626 2.78896 56.7455 2.7985C56.8284 2.80765 56.9086 2.83334 56.9815 2.87406C57.0543 2.91479 57.1183 2.96973 57.1696 3.03563C57.2209 3.10153 57.2585 3.17706 57.2801 3.25777C57.3018 3.33847 57.3072 3.42271 57.2958 3.50551C57.2844 3.58801 57.2567 3.6674 57.2143 3.73903C57.1719 3.81066 57.1157 3.87309 57.0489 3.92265L43.2834 14.1778ZM56.689 3.13433L56.8619 3.65398L56.689 3.13433Z" fill="#FFB800"/>
<path d="M10.7605 15.1642C10.7737 15.826 10.6027 16.4784 10.2666 17.0483C9.95082 17.5906 9.49503 18.0376 8.94717 18.3422C8.39759 18.6536 7.77583 18.8146 7.14446 18.8088C6.54527 18.8107 5.95665 18.6507 5.44053 18.3457C4.89865 18.0364 4.44826 17.5888 4.13524 17.0483C3.80175 16.4775 3.63206 15.8255 3.64487 15.1642V4.70752H0.00064019V15.3727C-0.0163221 16.6327 0.304068 17.8741 0.928455 18.9679C1.53883 20.0181 2.42299 20.8821 3.48612 21.4671C4.60843 22.0765 5.8681 22.3869 7.14446 22.3686C8.42448 22.3895 9.68823 22.0791 10.8134 21.4671C11.8707 20.8792 12.7496 20.0156 13.3569 18.9679C13.9826 17.8747 14.3031 16.6328 14.2848 15.3727V4.70752H10.7569L10.7605 15.1642Z" fill="white"/>
<path d="M30.3398 7.35181C29.632 6.52143 28.7454 5.86271 27.7469 5.42521C26.6244 4.94131 25.4126 4.70039 24.1908 4.71821H17.2234V22.2273H24.1767C25.7726 22.2793 27.3486 21.8614 28.71 21.0253C29.9167 20.2416 30.8769 19.131 31.4793 17.8226C32.0969 16.4587 32.4088 14.9757 32.393 13.478C32.3989 12.3509 32.2238 11.2301 31.8744 10.1586C31.5471 9.13311 31.0262 8.18021 30.3398 7.35181ZM28.717 13.478C28.7276 14.3903 28.5598 15.2958 28.2231 16.1435C27.9267 16.8925 27.4115 17.5344 26.745 17.9852C25.9433 18.4764 25.013 18.7153 24.0744 18.671H20.8641V8.2886H24.0603C25.0004 8.24713 25.9307 8.49376 26.7273 8.9956C27.3983 9.44761 27.9192 10.0902 28.2231 10.8409C28.553 11.6802 28.716 12.5761 28.7029 13.478H28.717Z" fill="white"/>
<path d="M68.5425 4.73218V22.2271H65.3922L57.13 11.3639V22.2271H53.4893V7.38699L56.7596 4.95135L64.8983 15.8711V4.73218H68.5425Z" fill="white"/>
<path d="M70.8708 22.2271H82.2869V18.6673H74.5151V15.0474H81.0027V11.4912H74.5151V8.28843H82.2869V4.73218H70.8708V22.2271Z" fill="white"/>
<path d="M93.7064 13.5415L99.7319 4.73218H95.3997L91.6073 10.5261L87.6421 4.73218H83.0559L89.2014 13.2976L82.9536 22.2271H87.2928L91.3392 16.32L95.4068 22.2271H100L93.7064 13.5415Z" fill="white"/>
</svg>
