<svg width="17" height="17" viewBox="0 0 17 17" fill="none" xmlns="http://www.w3.org/2000/svg">
<path d="M6.79736 0.931641C6.35986 0.931641 6.04736 1.27539 6.04736 1.68164V6.93164H3.29736C2.73486 6.93164 2.45361 7.61914 2.85986 8.02539L7.60986 12.7754C7.82861 12.9941 8.23486 12.9941 8.45361 12.7754L13.2036 8.02539C13.6099 7.61914 13.3286 6.93164 12.7661 6.93164H10.0474V1.68164C10.0474 1.27539 9.70361 0.931641 9.29736 0.931641H6.79736ZM16.0474 12.6816C16.0474 12.2754 15.7036 11.9316 15.2974 11.9316H10.7036L9.17236 13.4629C8.54736 14.1191 7.51611 14.1191 6.89111 13.4629L5.35986 11.9316H0.797363C0.359863 11.9316 0.0473633 12.2754 0.0473633 12.6816V16.1816C0.0473633 16.6191 0.359863 16.9316 0.797363 16.9316H15.2974C15.7036 16.9316 16.0474 16.6191 16.0474 16.1816V12.6816ZM12.1724 15.4316C12.1724 15.7754 11.8911 16.0566 11.5474 16.0566C11.2036 16.0566 10.9224 15.7754 10.9224 15.4316C10.9224 15.0879 11.2036 14.8066 11.5474 14.8066C11.8911 14.8066 12.1724 15.0879 12.1724 15.4316ZM14.1724 15.4316C14.1724 15.7754 13.8911 16.0566 13.5474 16.0566C13.2036 16.0566 12.9224 15.7754 12.9224 15.4316C12.9224 15.0879 13.2036 14.8066 13.5474 14.8066C13.8911 14.8066 14.1724 15.0879 14.1724 15.4316Z" fill="#666666"/>
</svg>
