<svg width="15" height="13" viewBox="0 0 15 13" fill="none" xmlns="http://www.w3.org/2000/svg">
<path d="M13.9648 10.0986H4.77734V9.66113C4.77734 9.44238 4.55859 9.22363 4.33984 9.22363H3.46484C3.21875 9.22363 3.02734 9.44238 3.02734 9.66113V10.0986H0.839844C0.59375 10.0986 0.402344 10.3174 0.402344 10.5361V11.4111C0.402344 11.6572 0.59375 11.8486 0.839844 11.8486H3.02734V12.2861C3.02734 12.5322 3.21875 12.7236 3.46484 12.7236H4.33984C4.55859 12.7236 4.77734 12.5322 4.77734 12.2861V11.8486H13.9648C14.1836 11.8486 14.4023 11.6572 14.4023 11.4111V10.5361C14.4023 10.3174 14.1836 10.0986 13.9648 10.0986ZM13.9648 5.72363H11.7773V5.28613C11.7773 5.06738 11.5586 4.84863 11.3398 4.84863H10.4648C10.2188 4.84863 10.0273 5.06738 10.0273 5.28613V5.72363H0.839844C0.59375 5.72363 0.402344 5.94238 0.402344 6.16113V7.03613C0.402344 7.28223 0.59375 7.47363 0.839844 7.47363H10.0273V7.91113C10.0273 8.15723 10.2188 8.34863 10.4648 8.34863H11.3398C11.5586 8.34863 11.7773 8.15723 11.7773 7.91113V7.47363H13.9648C14.1836 7.47363 14.4023 7.28223 14.4023 7.03613V6.16113C14.4023 5.94238 14.1836 5.72363 13.9648 5.72363ZM13.9648 1.34863H8.27734V0.911133C8.27734 0.692383 8.05859 0.473633 7.83984 0.473633H6.96484C6.71875 0.473633 6.52734 0.692383 6.52734 0.911133V1.34863H0.839844C0.59375 1.34863 0.402344 1.56738 0.402344 1.78613V2.66113C0.402344 2.90723 0.59375 3.09863 0.839844 3.09863H6.52734V3.53613C6.52734 3.78223 6.71875 3.97363 6.96484 3.97363H7.83984C8.05859 3.97363 8.27734 3.78223 8.27734 3.53613V3.09863H13.9648C14.1836 3.09863 14.4023 2.90723 14.4023 2.66113V1.78613C14.4023 1.56738 14.1836 1.34863 13.9648 1.34863Z" fill="#666666"/>
</svg>
