<svg width="15" height="15" viewBox="0 0 15 15" fill="none" xmlns="http://www.w3.org/2000/svg">
<path d="M14.917 7.375C14.917 3.39062 11.6357 0.109375 7.65137 0.109375C3.6377 0.109375 0.385742 3.39062 0.385742 7.375C0.385742 11.3887 3.6377 14.6406 7.65137 14.6406C11.6357 14.6406 14.917 11.3887 14.917 7.375ZM7.65137 8.83984C8.38379 8.83984 8.99902 9.45508 8.99902 10.1875C8.99902 10.9492 8.38379 11.5352 7.65137 11.5352C6.88965 11.5352 6.30371 10.9492 6.30371 10.1875C6.30371 9.45508 6.88965 8.83984 7.65137 8.83984ZM6.3623 4.00586C6.33301 3.80078 6.50879 3.625 6.71387 3.625H8.55957C8.76465 3.625 8.94043 3.80078 8.91113 4.00586L8.70605 7.99023C8.67676 8.19531 8.53027 8.3125 8.35449 8.3125H6.91895C6.74316 8.3125 6.59668 8.19531 6.56738 7.99023L6.3623 4.00586Z" fill="#999999"/>
</svg>
