<svg width="16" height="16" viewBox="0 0 16 16" fill="none" xmlns="http://www.w3.org/2000/svg">
<path d="M10.4275 0.447998C10.5739 0.477286 10.7203 0.499252 10.8668 0.535862C12.5179 0.956877 13.5247 2.00392 13.9237 3.65137C13.9494 3.75388 13.9603 3.86371 13.9786 3.99185C14.1141 3.99185 14.2532 3.99551 14.3923 3.99185C14.5937 3.98453 14.7474 4.06507 14.8353 4.24446C14.9195 4.42018 14.8792 4.58493 14.7621 4.73503C14.191 5.45259 13.6199 6.17014 13.0414 6.88404C12.8401 7.13299 12.5252 7.13665 12.3239 6.8877C11.7454 6.17014 11.1707 5.44893 10.5959 4.72771C10.4751 4.57761 10.4421 4.4092 10.5336 4.23713C10.6215 4.06507 10.7716 3.98819 10.9656 3.99185C11.0828 3.99551 11.1999 3.99185 11.3244 3.99185C11.2402 3.40609 11.0096 2.89721 10.6361 2.45789C10.0248 1.73667 9.24497 1.36325 8.30043 1.32664C8.03684 1.31566 7.86843 1.19118 7.8245 0.978843C7.78057 0.766505 7.88307 0.587116 8.12104 0.469964C8.12836 0.466303 8.13568 0.45532 8.13934 0.447998C8.90449 0.447998 9.66598 0.447998 10.4275 0.447998Z" fill="rgb(0, 195, 255)"/>
<path d="M0.762449 6.74504C0.832008 6.47778 0.886923 6.20321 0.978448 5.94694C1.12489 5.53691 1.37018 5.18545 1.69234 4.8706C2.29275 5.44538 3.01396 5.74924 3.84135 5.74558C4.66508 5.74558 5.37897 5.44172 5.97938 4.86694C6.54317 5.4344 6.85802 6.10436 6.90195 6.89148C6.92025 7.24293 6.90927 7.59439 6.90561 7.94585C6.90195 8.19479 6.7189 8.3815 6.46995 8.3815C4.71267 8.38517 2.95539 8.3815 1.19811 8.3815C0.971126 8.3815 0.846652 8.24239 0.755127 8.05934C0.762449 7.62368 0.762449 7.18436 0.762449 6.74504Z" fill="rgb(0, 195, 255)"/>
<path d="M4.10124 0.447998C4.22205 0.477286 4.34653 0.502913 4.46734 0.539523C5.39723 0.828742 6.09649 1.73301 6.03425 2.83497C5.983 3.77585 5.21785 4.64717 4.25866 4.83022C2.81989 5.10479 1.51657 3.92595 1.64471 2.46887C1.73257 1.46942 2.51603 0.631048 3.50816 0.473625C3.53012 0.469964 3.55209 0.45532 3.57406 0.447998C3.74978 0.447998 3.92551 0.447998 4.10124 0.447998Z" fill="rgb(0, 195, 255)"/>
<path d="M2.54166 11.8997C2.39522 11.8997 2.26342 11.896 2.13529 11.8997C1.93393 11.907 1.78017 11.8338 1.68865 11.6544C1.59346 11.4677 1.64471 11.2956 1.77285 11.1382C2.08037 10.7574 2.38058 10.3767 2.6881 9.99596C2.94437 9.67745 3.20064 9.35528 3.45691 9.03677C3.68023 8.75854 4.0024 8.75854 4.22572 9.03311C4.78219 9.72504 5.335 10.4206 5.89148 11.1126C6.02327 11.2773 6.09283 11.4494 5.99398 11.6507C5.89514 11.8484 5.71941 11.9107 5.50341 11.896C5.43385 11.8924 5.36795 11.896 5.29839 11.896C5.2691 11.896 5.23982 11.896 5.19955 11.896C5.26544 12.3829 5.43751 12.8149 5.71575 13.203C6.33812 14.0743 7.19113 14.5246 8.26014 14.5612C8.59329 14.5722 8.79831 14.8871 8.66651 15.1763C8.59329 15.341 8.4615 15.4362 8.27845 15.4362C7.59384 15.4362 6.90923 15.4692 6.22829 15.4252C5.00551 15.3483 4.02803 14.7845 3.29583 13.8034C2.87115 13.2469 2.62952 12.6099 2.54166 11.8997Z" fill="rgb(0, 195, 255)"/>
<path d="M14.828 11.8958C15.4064 12.4925 15.7213 13.1881 15.7542 14.0045C15.7689 14.334 15.7616 14.6671 15.7579 15.0003C15.7542 15.2602 15.5749 15.4433 15.3149 15.4433C13.5576 15.4433 11.8004 15.4433 10.0431 15.4433C9.81244 15.4433 9.61108 15.2712 9.61108 15.0515C9.61841 14.539 9.60376 14.0228 9.67332 13.5212C9.76118 12.8952 10.076 12.3607 10.5337 11.8994C11.1341 12.4742 11.848 12.7744 12.6717 12.7744C13.5027 12.7744 14.2203 12.4779 14.828 11.8958Z" fill="rgb(0, 195, 255)"/>
<path d="M10.486 9.69564C10.4896 8.48385 11.4744 7.50636 12.6862 7.51002C13.9017 7.51002 14.8828 8.49849 14.8755 9.72127C14.8719 10.9294 13.8834 11.9032 12.6679 11.8996C11.4598 11.8959 10.4823 10.9074 10.486 9.69564Z" fill="rgb(0, 195, 255)"/>
</svg>
