<svg width="17" height="16" viewBox="0 0 17 16" fill="none" xmlns="http://www.w3.org/2000/svg">
<path d="M16.2495 7.93164C16.2183 3.65039 12.7495 0.181641 8.49951 0.181641C6.40576 0.181641 4.53076 1.02539 3.12451 2.33789L1.59326 0.806641C1.28076 0.494141 0.749512 0.712891 0.749512 1.15039V5.68164C0.749512 5.96289 0.968262 6.18164 1.24951 6.18164H5.78076C6.21826 6.18164 6.43701 5.65039 6.12451 5.33789L4.53076 3.74414C5.56201 2.77539 6.96826 2.18164 8.49951 2.18164C11.6558 2.18164 14.2495 4.77539 14.2495 7.93164C14.2495 11.1191 11.6558 13.6816 8.49951 13.6816C7.12451 13.6816 5.90576 13.2441 4.90576 12.4629C4.62451 12.2129 4.18701 12.2441 3.90576 12.5254L3.56201 12.8691C3.24951 13.1816 3.28076 13.7129 3.62451 13.9941C4.93701 15.0566 6.65576 15.7129 8.49951 15.6816C12.7495 15.6816 16.2495 12.2129 16.2495 7.93164ZM10.5933 10.4004L10.8745 9.99414C11.1558 9.68164 11.0933 9.21289 10.7495 8.96289L9.49951 7.96289V4.68164C9.49951 4.27539 9.15576 3.93164 8.74951 3.93164H8.24951C7.81201 3.93164 7.49951 4.27539 7.49951 4.68164V8.93164L9.53076 10.5254C9.84326 10.7754 10.312 10.7129 10.5933 10.4004Z" fill="#666666"/>
</svg>
